<svg width="160" height="160" viewBox="0 0 160 160" fill="none" xmlns="http://www.w3.org/2000/svg">
<g clip-path="url(#clip0_97_626)">
<path d="M80 61.1133C80 61.1133 46.6667 37.5333 46.6667 18.3333C46.6667 8.20667 54.1267 0 63.3333 0C72.54 0 80 8.20667 80 18.3333C80 8.20667 87.46 0 96.6667 0C105.873 0 113.333 8.20667 113.333 18.3333C113.333 37.5333 80 61.1133 80 61.1133ZM86.78 103.247C90.9533 107.04 93.3333 112.413 93.3333 118.053V160H27.76L6.98 137.253C2.49333 132.34 0 125.927 0 119.267V36.6667C0 26.8933 8.40667 19.0867 18.3867 20.0867C27.06 20.9533 33.3333 28.9 33.3333 37.62V63.98C33.3333 63.98 28.2667 68.0867 27.2867 69.1667C17.9533 79.4467 17.5867 95.2667 26.4533 105.96L49.3667 129.107L58.7267 119.747L37.1067 97.9133C33.0867 93.06 32.0933 86.1 35.2933 80.6733C40.22 72.3133 51.2267 70.96 58.0067 77.12L86.7867 103.253L86.78 103.247ZM124.72 80.6733C119.793 72.3133 108.787 70.96 102.007 77.12L89.92 88.0933L95.7467 93.3867C101.867 98.9467 105.513 106.633 106.327 114.8L122.907 97.92C126.927 93.0667 127.92 86.1067 124.72 80.68V80.6733ZM143.34 20C134.133 20 126.673 27.46 126.673 36.6667V63.9733C126.673 63.9733 131.74 68.08 132.72 69.16C142.053 79.44 142.42 95.26 133.553 105.953L106.667 133.207V160H132.24L153.02 137.253C157.507 132.34 160 125.927 160 119.267V36.6667C160 27.46 152.547 20 143.34 20Z" fill="#2D4484"/>
</g>
<defs>
<clipPath id="clip0_97_626">
<rect width="160" height="160" fill="white"/>
</clipPath>
</defs>
</svg>
