<svg width="160" height="160" viewBox="0 0 160 160" fill="none" xmlns="http://www.w3.org/2000/svg">
<g clip-path="url(#clip0_97_622)">
<path d="M16.6667 16.6667C16.6667 7.46 24.1267 0 33.3333 0C42.54 0 50 7.46 50 16.6667C50 25.8733 42.54 33.3333 33.3333 33.3333C24.1267 33.3333 16.6667 25.8733 16.6667 16.6667ZM80 66.6667C89.2067 66.6667 96.6667 59.2067 96.6667 50C96.6667 40.7933 89.2067 33.3333 80 33.3333C70.7933 33.3333 63.3333 40.7933 63.3333 50C63.3333 59.2067 70.7933 66.6667 80 66.6667ZM86.6667 73.3333H73.3333C62.3067 73.3333 53.3333 82.3067 53.3333 93.3333V133.333H60V160H73.3333V133.333H86.6667V160H100V133.333H106.667V93.3333C106.667 82.3067 97.6933 73.3333 86.6667 73.3333ZM50 50C50 46.7067 50.66 43.6 51.64 40.6333C51.5933 40.62 51.5533 40.6067 51.5067 40.5933C49.9533 40.2067 48.3333 40 46.6667 40H20C8.97333 40 0 48.9733 0 60V113.333H13.3333V160H26.6667V113.333H40V93.3333C40 81.9 45.8 71.8 54.6 65.7933C51.72 61.2067 50 55.82 50 50ZM126.667 33.3333C117.46 33.3333 110 25.8733 110 16.6667C110 7.46 117.46 0 126.667 0C135.873 0 143.333 7.46 143.333 16.6667C143.333 25.8733 135.873 33.3333 126.667 33.3333ZM105.4 65.7933C114.2 71.8 120 81.9 120 93.3333V113.333H133.333V160H146.667V113.333H160V60C160 48.9733 151.027 40 140 40H113.333C111.667 40 110.047 40.2067 108.493 40.5933C108.447 40.6067 108.407 40.62 108.36 40.6333C109.34 43.5933 110 46.7067 110 50C110 55.82 108.287 61.2067 105.4 65.7933Z" fill="#2D4484"/>
</g>
<defs>
<clipPath id="clip0_97_622">
<rect width="160" height="160" fill="white"/>
</clipPath>
</defs>
</svg>
