<svg width="76" height="76" viewBox="0 0 76 76" fill="none" xmlns="http://www.w3.org/2000/svg">
<g clip-path="url(#clip0_84_593)">
<path d="M38 6.84633C48.146 6.84633 49.3493 6.88433 53.3552 7.068C57.4972 7.258 61.7627 8.20167 64.7805 11.2195C67.8268 14.2658 68.742 18.4902 68.932 22.6448C69.1157 26.6507 69.1537 27.854 69.1537 38C69.1537 48.146 69.1157 49.3493 68.932 53.3552C68.7452 57.475 67.7793 61.7817 64.7805 64.7805C61.7342 67.8268 57.513 68.742 53.3552 68.932C49.3493 69.1157 48.146 69.1537 38 69.1537C27.854 69.1537 26.6507 69.1157 22.6448 68.932C18.5567 68.7452 14.193 67.7572 11.2195 64.7805C8.189 61.75 7.258 57.4845 7.068 53.3552C6.88433 49.3493 6.84633 48.146 6.84633 38C6.84633 27.854 6.88433 26.6507 7.068 22.6448C7.25483 18.5408 8.23017 14.2088 11.2195 11.2195C14.2595 8.1795 18.4997 7.258 22.6448 7.068C26.6507 6.88433 27.854 6.84633 38 6.84633ZM38 0C27.6798 0 26.3847 0.0443333 22.3313 0.228C16.4572 0.497167 10.6242 2.13117 6.37767 6.37767C2.11533 10.64 0.497167 16.4603 0.228 22.3313C0.0443333 26.3847 0 27.6798 0 38C0 48.3202 0.0443333 49.6153 0.228 53.6687C0.497167 59.5365 2.1375 65.3853 6.37767 69.6223C10.6368 73.8815 16.4667 75.5028 22.3313 75.772C26.3847 75.9557 27.6798 76 38 76C48.3202 76 49.6153 75.9557 53.6687 75.772C59.5397 75.5028 65.379 73.8657 69.6223 69.6223C73.8878 65.3568 75.5028 59.5397 75.772 53.6687C75.9557 49.6153 76 48.3202 76 38C76 27.6798 75.9557 26.3847 75.772 22.3313C75.5028 16.4572 73.8657 10.621 69.6223 6.37767C65.3695 2.12483 59.5238 0.494 53.6687 0.228C49.6153 0.0443333 48.3202 0 38 0Z" fill="#2D4484"/>
<path d="M38.0001 18.4868C27.2239 18.4868 18.4871 27.2237 18.4871 37.9998C18.4871 48.776 27.2239 57.5128 38.0001 57.5128C48.7762 57.5128 57.5131 48.776 57.5131 37.9998C57.5131 27.2237 48.7762 18.4868 38.0001 18.4868ZM38.0001 50.6665C31.0049 50.6665 25.3334 44.995 25.3334 37.9998C25.3334 31.0047 31.0049 25.3332 38.0001 25.3332C44.9952 25.3332 50.6667 31.0047 50.6667 37.9998C50.6667 44.995 44.9952 50.6665 38.0001 50.6665Z" fill="#2D4484"/>
<path d="M58.2857 22.2743C60.8041 22.2743 62.8457 20.2327 62.8457 17.7143C62.8457 15.1959 60.8041 13.1543 58.2857 13.1543C55.7673 13.1543 53.7257 15.1959 53.7257 17.7143C53.7257 20.2327 55.7673 22.2743 58.2857 22.2743Z" fill="#2D4484"/>
</g>
<defs>
<clipPath id="clip0_84_593">
<rect width="76" height="76" fill="white"/>
</clipPath>
</defs>
</svg>
