<svg width="441" height="429" viewBox="0 0 441 429" fill="none" xmlns="http://www.w3.org/2000/svg">
<path d="M74.5 284.5C68 272.5 140.5 194.5 171.149 158L157 161.5L144.5 169.5L131.5 178L107 196L76.5 220.5L44.6494 250C35.5 260.5 4 288.5 14 303C18.5 311 38.5 311.5 54 308.5C65 307 86.5 302.544 107.5 295C123.149 289.379 136 284.5 132.649 274.5C113.5 279.5 87.5 288 74.5 284.5Z" fill="#131521" stroke="#131521"/>
<path d="M269.5 183.5L238 199.5C247.5 202 374 164.5 411 140.5C448.5 117.5 440.688 105 436 97.5C428.5 85.5 364.5 80.5 338.5 90.5C318.5 101.5 324.5 104 330 103.5C336.333 103.333 352.8 103.5 368 105.5C383.2 107.5 370 116.5 357 127.5C345.5 139 292.5 171.5 269.5 183.5Z" fill="#F3FE04" stroke="#F3FE04"/>
<path d="M201 234C193.8 230 165 203.667 151.5 191C155 203 175 240.5 204 269.5C227.5 291.5 265 318.5 278 318.5C286.5 318.5 291 311 294.5 304C305.5 252.5 292.667 212.667 283 206C289 260.5 273.5 265 267.5 267C243 265 210 239 201 234Z" fill="#EF0100" stroke="#EF0100"/>
<path d="M17.5 116C37.5 111.5 150.5 102.5 229 134.5C214.5 133.5 83 131.5 63.5 149.5C58.5 165 88.5 178.5 109 187.5C58 189.5 22 157.5 7.99995 143C-4.50001 130.5 0.499971 119.825 17.5 116Z" fill="#054FAE" stroke="#054FAE"/>
<path d="M278.5 18.5C287.5 41.5 289.5 121 256.5 158.5C262.5 102.5 258 67 246 51C228 38.2 203 78 193 85.5C194.5 64.5 208 35 237.5 13.5C250.3 2.30001 267.739 -9 278.5 18.5Z" fill="#00BCEC" stroke="#00BCEC"/>
<path d="M184.5 220C174 202 159.5 168.5 166 147.5C167 138.5 175.5 131.5 188 129C204.5 130 217.185 137.198 219 152.5C221 151 230.5 145.197 243 150.5C258 155 265.5 173.5 259.5 186C251.411 202.529 228.48 211.842 208.803 217.683C200.447 220.384 192.676 222.365 187 223.5L184.5 220Z" fill="#EF0100"/>
<path d="M65.1191 395.76L61.2227 385.518H28.0469L24.1504 395.982C22.6289 400.064 21.3301 402.829 20.2539 404.276C19.1777 405.687 17.415 406.392 14.9658 406.392C12.8877 406.392 11.0508 405.631 9.45508 404.109C7.85938 402.588 7.06152 400.862 7.06152 398.933C7.06152 397.819 7.24707 396.669 7.61816 395.481C7.98926 394.294 8.60156 392.643 9.45508 390.527L30.3291 337.535C30.9229 336.014 31.6279 334.195 32.4443 332.08C33.2979 329.928 34.1885 328.146 35.1162 326.736C36.0811 325.326 37.3242 324.194 38.8457 323.341C40.4043 322.45 42.3154 322.005 44.5791 322.005C46.8799 322.005 48.791 322.45 50.3125 323.341C51.8711 324.194 53.1143 325.308 54.042 326.681C55.0068 328.054 55.8047 329.538 56.4355 331.134C57.1035 332.692 57.9385 334.789 58.9404 337.424L80.2598 390.082C81.9297 394.09 82.7646 397.003 82.7646 398.821C82.7646 400.714 81.9668 402.458 80.3711 404.054C78.8125 405.612 76.9199 406.392 74.6934 406.392C73.3945 406.392 72.2812 406.15 71.3535 405.668C70.4258 405.223 69.6465 404.61 69.0156 403.831C68.3848 403.015 67.6982 401.79 66.9561 400.157C66.251 398.487 65.6387 397.021 65.1191 395.76ZM32.3887 373.104H56.7695L44.4678 339.428L32.3887 373.104ZM129.801 405H104.863C101.264 405 98.6846 404.202 97.126 402.606C95.6045 400.974 94.8438 398.395 94.8438 394.869V333.527C94.8438 329.928 95.623 327.349 97.1816 325.79C98.7773 324.194 101.338 323.396 104.863 323.396H131.304C135.2 323.396 138.577 323.638 141.435 324.12C144.292 324.603 146.853 325.53 149.116 326.903C151.046 328.054 152.753 329.52 154.237 331.301C155.722 333.045 156.854 334.993 157.633 337.146C158.412 339.261 158.802 341.506 158.802 343.881C158.802 352.045 154.72 358.02 146.556 361.805C157.28 365.219 162.643 371.861 162.643 381.732C162.643 386.297 161.474 390.416 159.136 394.09C156.798 397.727 153.644 400.417 149.673 402.161C147.187 403.2 144.329 403.942 141.101 404.388C137.872 404.796 134.105 405 129.801 405ZM128.576 368.763H111.376V392.587H129.133C140.303 392.587 145.888 388.561 145.888 380.508C145.888 376.389 144.44 373.401 141.546 371.546C138.651 369.69 134.328 368.763 128.576 368.763ZM111.376 335.81V356.906H126.517C130.636 356.906 133.809 356.517 136.035 355.737C138.299 354.958 140.024 353.474 141.212 351.284C142.14 349.726 142.604 347.981 142.604 346.052C142.604 341.933 141.138 339.205 138.206 337.869C135.274 336.496 130.803 335.81 124.791 335.81H111.376ZM224.875 395.76L220.979 385.518H187.803L183.906 395.982C182.385 400.064 181.086 402.829 180.01 404.276C178.934 405.687 177.171 406.392 174.722 406.392C172.644 406.392 170.807 405.631 169.211 404.109C167.615 402.588 166.817 400.862 166.817 398.933C166.817 397.819 167.003 396.669 167.374 395.481C167.745 394.294 168.357 392.643 169.211 390.527L190.085 337.535C190.679 336.014 191.384 334.195 192.2 332.08C193.054 329.928 193.944 328.146 194.872 326.736C195.837 325.326 197.08 324.194 198.602 323.341C200.16 322.45 202.071 322.005 204.335 322.005C206.636 322.005 208.547 322.45 210.068 323.341C211.627 324.194 212.87 325.308 213.798 326.681C214.763 328.054 215.561 329.538 216.191 331.134C216.859 332.692 217.694 334.789 218.696 337.424L240.016 390.082C241.686 394.09 242.521 397.003 242.521 398.821C242.521 400.714 241.723 402.458 240.127 404.054C238.568 405.612 236.676 406.392 234.449 406.392C233.15 406.392 232.037 406.15 231.109 405.668C230.182 405.223 229.402 404.61 228.771 403.831C228.141 403.015 227.454 401.79 226.712 400.157C226.007 398.487 225.395 397.021 224.875 395.76ZM192.145 373.104H216.525L204.224 339.428L192.145 373.104ZM286.384 373.216H271.243V396.316C271.243 399.619 270.464 402.124 268.905 403.831C267.347 405.538 265.38 406.392 263.005 406.392C260.519 406.392 258.515 405.557 256.993 403.887C255.472 402.18 254.711 399.693 254.711 396.428V333.527C254.711 329.891 255.546 327.293 257.216 325.734C258.886 324.176 261.539 323.396 265.176 323.396H286.384C292.655 323.396 297.479 323.879 300.856 324.844C304.196 325.771 307.072 327.312 309.484 329.464C311.934 331.616 313.789 334.251 315.051 337.368C316.312 340.485 316.943 343.992 316.943 347.889C316.943 356.201 314.383 362.51 309.262 366.814C304.141 371.082 296.515 373.216 286.384 373.216ZM282.376 335.81H271.243V360.747H282.376C286.272 360.747 289.52 360.339 292.117 359.522C294.752 358.706 296.756 357.37 298.129 355.515C299.502 353.659 300.188 351.229 300.188 348.223C300.188 344.623 299.131 341.691 297.016 339.428C294.641 337.016 289.761 335.81 282.376 335.81Z" fill="#043DB5"/>
</svg>
